<mxfile host="app.diagrams.net" modified="2022-01-26T08:28:43.471Z" agent="5.0 (Windows NT 10.0; Win64; x64) AppleWebKit/537.36 (KHTML, like Gecko) Chrome/97.0.4692.71 Safari/537.36 Edg/97.0.1072.62" etag="UYMZGKx18tVp0q6uGXyC" version="16.2.6" type="github">
  <diagram id="XOhA55NcS2QHTR4QWhDT" name="Page-1">
    <mxGraphModel dx="1303" dy="727" grid="1" gridSize="10" guides="1" tooltips="1" connect="1" arrows="1" fold="1" page="1" pageScale="1" pageWidth="827" pageHeight="1169" math="0" shadow="0">
      <root>
        <mxCell id="0" />
        <mxCell id="1" parent="0" />
        <mxCell id="sfOpB3X1GmYssThPa7Gk-39" style="edgeStyle=none;rounded=0;orthogonalLoop=1;jettySize=auto;html=1;endArrow=diamondThin;endFill=0;strokeWidth=1;endSize=20;" edge="1" parent="1" source="sfOpB3X1GmYssThPa7Gk-1" target="sfOpB3X1GmYssThPa7Gk-32">
          <mxGeometry relative="1" as="geometry" />
        </mxCell>
        <mxCell id="sfOpB3X1GmYssThPa7Gk-1" value="抽象元素（Element）" style="rounded=0;whiteSpace=wrap;html=1;fillColor=#dae8fc;strokeColor=#6c8ebf;align=left;spacingLeft=10;" vertex="1" parent="1">
          <mxGeometry x="520" y="40" width="200" height="30" as="geometry" />
        </mxCell>
        <mxCell id="sfOpB3X1GmYssThPa7Gk-2" value="&lt;span style=&quot;line-height: 1&quot;&gt;动物场馆（Animal&amp;nbsp;）&lt;/span&gt;" style="rounded=0;whiteSpace=wrap;html=1;fillColor=#ffe6cc;strokeColor=#d79b00;align=left;spacingLeft=10;" vertex="1" parent="1">
          <mxGeometry x="520" y="70" width="200" height="30" as="geometry" />
        </mxCell>
        <mxCell id="sfOpB3X1GmYssThPa7Gk-3" value="receive(Visitor visitor)" style="rounded=0;whiteSpace=wrap;html=1;fillColor=#ffe6cc;strokeColor=#d79b00;align=left;spacingLeft=10;" vertex="1" parent="1">
          <mxGeometry x="520" y="100" width="200" height="40" as="geometry" />
        </mxCell>
        <mxCell id="sfOpB3X1GmYssThPa7Gk-4" value="具体元素（ConcreteElement）" style="rounded=0;whiteSpace=wrap;html=1;fillColor=#dae8fc;strokeColor=#6c8ebf;align=left;spacingLeft=10;" vertex="1" parent="1">
          <mxGeometry x="280" y="200" width="200" height="30" as="geometry" />
        </mxCell>
        <mxCell id="sfOpB3X1GmYssThPa7Gk-5" value="&lt;span&gt;陆地动物（TerrestrialAnimals）&lt;/span&gt;" style="rounded=0;whiteSpace=wrap;html=1;fillColor=#ffe6cc;strokeColor=#d79b00;align=left;spacingLeft=10;" vertex="1" parent="1">
          <mxGeometry x="280" y="230" width="200" height="30" as="geometry" />
        </mxCell>
        <mxCell id="sfOpB3X1GmYssThPa7Gk-6" value="receive(Visitor visitor)" style="rounded=0;whiteSpace=wrap;html=1;fillColor=#ffe6cc;strokeColor=#d79b00;align=left;spacingLeft=10;" vertex="1" parent="1">
          <mxGeometry x="280" y="260" width="200" height="40" as="geometry" />
        </mxCell>
        <mxCell id="sfOpB3X1GmYssThPa7Gk-13" style="edgeStyle=orthogonalEdgeStyle;rounded=0;orthogonalLoop=1;jettySize=auto;html=1;entryX=0.5;entryY=1;entryDx=0;entryDy=0;endArrow=block;endFill=0;align=left;spacingLeft=10;endSize=10;dashed=1;" edge="1" parent="1" source="sfOpB3X1GmYssThPa7Gk-7" target="sfOpB3X1GmYssThPa7Gk-3">
          <mxGeometry relative="1" as="geometry" />
        </mxCell>
        <mxCell id="sfOpB3X1GmYssThPa7Gk-7" value="具体元素（ConcreteElement）" style="rounded=0;whiteSpace=wrap;html=1;fillColor=#dae8fc;strokeColor=#6c8ebf;align=left;spacingLeft=10;" vertex="1" parent="1">
          <mxGeometry x="520" y="200" width="200" height="30" as="geometry" />
        </mxCell>
        <mxCell id="sfOpB3X1GmYssThPa7Gk-8" value="&lt;span&gt;海洋动物（MarineAnimal）&lt;/span&gt;" style="rounded=0;whiteSpace=wrap;html=1;fillColor=#ffe6cc;strokeColor=#d79b00;align=left;spacingLeft=10;" vertex="1" parent="1">
          <mxGeometry x="520" y="230" width="200" height="30" as="geometry" />
        </mxCell>
        <mxCell id="sfOpB3X1GmYssThPa7Gk-9" value="receive(Visitor visitor)" style="rounded=0;whiteSpace=wrap;html=1;fillColor=#ffe6cc;strokeColor=#d79b00;align=left;spacingLeft=10;" vertex="1" parent="1">
          <mxGeometry x="520" y="260" width="200" height="40" as="geometry" />
        </mxCell>
        <mxCell id="sfOpB3X1GmYssThPa7Gk-16" style="edgeStyle=none;rounded=0;orthogonalLoop=1;jettySize=auto;html=1;endArrow=block;endFill=0;entryX=0.5;entryY=1;entryDx=0;entryDy=0;align=left;spacingLeft=10;endSize=10;dashed=1;" edge="1" parent="1" source="sfOpB3X1GmYssThPa7Gk-10" target="sfOpB3X1GmYssThPa7Gk-3">
          <mxGeometry relative="1" as="geometry" />
        </mxCell>
        <mxCell id="sfOpB3X1GmYssThPa7Gk-10" value="具体元素（ConcreteElement）" style="rounded=0;whiteSpace=wrap;html=1;fillColor=#dae8fc;strokeColor=#6c8ebf;align=left;spacingLeft=10;" vertex="1" parent="1">
          <mxGeometry x="760" y="200" width="200" height="30" as="geometry" />
        </mxCell>
        <mxCell id="sfOpB3X1GmYssThPa7Gk-11" value="&lt;span&gt;飞行动物（FlyingAnimal）&lt;/span&gt;" style="rounded=0;whiteSpace=wrap;html=1;fillColor=#ffe6cc;strokeColor=#d79b00;align=left;spacingLeft=10;" vertex="1" parent="1">
          <mxGeometry x="760" y="230" width="200" height="30" as="geometry" />
        </mxCell>
        <mxCell id="sfOpB3X1GmYssThPa7Gk-12" value="receive(Visitor visitor)" style="rounded=0;whiteSpace=wrap;html=1;fillColor=#ffe6cc;strokeColor=#d79b00;align=left;spacingLeft=10;" vertex="1" parent="1">
          <mxGeometry x="760" y="260" width="200" height="40" as="geometry" />
        </mxCell>
        <mxCell id="sfOpB3X1GmYssThPa7Gk-15" style="rounded=0;orthogonalLoop=1;jettySize=auto;html=1;entryX=0.5;entryY=1;entryDx=0;entryDy=0;endArrow=block;endFill=0;exitX=0.5;exitY=0;exitDx=0;exitDy=0;align=left;spacingLeft=10;endSize=10;dashed=1;" edge="1" parent="1" source="sfOpB3X1GmYssThPa7Gk-4" target="sfOpB3X1GmYssThPa7Gk-3">
          <mxGeometry relative="1" as="geometry">
            <mxPoint x="630" y="210" as="sourcePoint" />
            <mxPoint x="630" y="150" as="targetPoint" />
          </mxGeometry>
        </mxCell>
        <mxCell id="sfOpB3X1GmYssThPa7Gk-17" value="抽象访问者（Visitor）" style="rounded=0;whiteSpace=wrap;html=1;fillColor=#dae8fc;strokeColor=#6c8ebf;align=left;spacingLeft=10;" vertex="1" parent="1">
          <mxGeometry x="520" y="360" width="200" height="30" as="geometry" />
        </mxCell>
        <mxCell id="sfOpB3X1GmYssThPa7Gk-18" value="&lt;span&gt;游客（Visitor）&lt;/span&gt;" style="rounded=0;whiteSpace=wrap;html=1;fillColor=#ffe6cc;strokeColor=#d79b00;align=left;spacingLeft=10;" vertex="1" parent="1">
          <mxGeometry x="520" y="390" width="200" height="30" as="geometry" />
        </mxCell>
        <mxCell id="sfOpB3X1GmYssThPa7Gk-19" value="&lt;p style=&quot;line-height: 1.9&quot;&gt;visit(TerrestrialAnimals animals)&lt;br&gt;visit(MarineAnimal animals)&lt;br&gt;visit(FlyingAnimal animals)&lt;/p&gt;" style="rounded=0;whiteSpace=wrap;html=1;fillColor=#ffe6cc;strokeColor=#d79b00;align=left;spacingLeft=10;" vertex="1" parent="1">
          <mxGeometry x="520" y="420" width="200" height="80" as="geometry" />
        </mxCell>
        <mxCell id="sfOpB3X1GmYssThPa7Gk-29" style="edgeStyle=none;rounded=0;orthogonalLoop=1;jettySize=auto;html=1;entryX=0.5;entryY=1;entryDx=0;entryDy=0;endArrow=block;endFill=0;endSize=10;dashed=1;" edge="1" parent="1" source="sfOpB3X1GmYssThPa7Gk-20" target="sfOpB3X1GmYssThPa7Gk-19">
          <mxGeometry relative="1" as="geometry" />
        </mxCell>
        <mxCell id="sfOpB3X1GmYssThPa7Gk-20" value="具体的访问者（ConcreteVisitor）" style="rounded=0;whiteSpace=wrap;html=1;fillColor=#dae8fc;strokeColor=#6c8ebf;align=left;spacingLeft=10;" vertex="1" parent="1">
          <mxGeometry x="280" y="560" width="200" height="30" as="geometry" />
        </mxCell>
        <mxCell id="sfOpB3X1GmYssThPa7Gk-21" value="&lt;span&gt;Vip游客（VipVisitor）&lt;/span&gt;" style="rounded=0;whiteSpace=wrap;html=1;fillColor=#ffe6cc;strokeColor=#d79b00;align=left;spacingLeft=10;" vertex="1" parent="1">
          <mxGeometry x="280" y="590" width="200" height="30" as="geometry" />
        </mxCell>
        <mxCell id="sfOpB3X1GmYssThPa7Gk-22" value="&lt;p style=&quot;line-height: 1.9&quot;&gt;visit(TerrestrialAnimals animals)&lt;br&gt;visit(MarineAnimal animals)&lt;br&gt;visit(FlyingAnimal animals)&lt;/p&gt;" style="rounded=0;whiteSpace=wrap;html=1;fillColor=#ffe6cc;strokeColor=#d79b00;align=left;spacingLeft=10;" vertex="1" parent="1">
          <mxGeometry x="280" y="620" width="200" height="80" as="geometry" />
        </mxCell>
        <mxCell id="sfOpB3X1GmYssThPa7Gk-30" style="edgeStyle=none;rounded=0;orthogonalLoop=1;jettySize=auto;html=1;endArrow=block;endFill=0;endSize=10;dashed=1;" edge="1" parent="1" source="sfOpB3X1GmYssThPa7Gk-23" target="sfOpB3X1GmYssThPa7Gk-19">
          <mxGeometry relative="1" as="geometry" />
        </mxCell>
        <mxCell id="sfOpB3X1GmYssThPa7Gk-23" value="具体的访问者（ConcreteVisitor）" style="rounded=0;whiteSpace=wrap;html=1;fillColor=#dae8fc;strokeColor=#6c8ebf;align=left;spacingLeft=10;" vertex="1" parent="1">
          <mxGeometry x="520" y="560" width="200" height="30" as="geometry" />
        </mxCell>
        <mxCell id="sfOpB3X1GmYssThPa7Gk-24" value="&lt;span&gt;学生游客（StudentVisitor）&lt;/span&gt;" style="rounded=0;whiteSpace=wrap;html=1;fillColor=#ffe6cc;strokeColor=#d79b00;align=left;spacingLeft=10;" vertex="1" parent="1">
          <mxGeometry x="520" y="590" width="200" height="30" as="geometry" />
        </mxCell>
        <mxCell id="sfOpB3X1GmYssThPa7Gk-25" value="&lt;p style=&quot;line-height: 1.9&quot;&gt;visit(TerrestrialAnimals animals)&lt;br&gt;visit(MarineAnimal animals)&lt;br&gt;visit(FlyingAnimal animals)&lt;/p&gt;" style="rounded=0;whiteSpace=wrap;html=1;fillColor=#ffe6cc;strokeColor=#d79b00;align=left;spacingLeft=10;" vertex="1" parent="1">
          <mxGeometry x="520" y="620" width="200" height="80" as="geometry" />
        </mxCell>
        <mxCell id="sfOpB3X1GmYssThPa7Gk-31" style="edgeStyle=none;rounded=0;orthogonalLoop=1;jettySize=auto;html=1;endArrow=block;endFill=0;entryX=0.5;entryY=1;entryDx=0;entryDy=0;endSize=10;dashed=1;" edge="1" parent="1" source="sfOpB3X1GmYssThPa7Gk-26" target="sfOpB3X1GmYssThPa7Gk-19">
          <mxGeometry relative="1" as="geometry" />
        </mxCell>
        <mxCell id="sfOpB3X1GmYssThPa7Gk-26" value="具体的访问者（ConcreteVisitor）" style="rounded=0;whiteSpace=wrap;html=1;fillColor=#dae8fc;strokeColor=#6c8ebf;align=left;spacingLeft=10;" vertex="1" parent="1">
          <mxGeometry x="760" y="560" width="200" height="30" as="geometry" />
        </mxCell>
        <mxCell id="sfOpB3X1GmYssThPa7Gk-27" value="&lt;span&gt;普通游客（CommonVisitor）&lt;/span&gt;" style="rounded=0;whiteSpace=wrap;html=1;fillColor=#ffe6cc;strokeColor=#d79b00;align=left;spacingLeft=10;" vertex="1" parent="1">
          <mxGeometry x="760" y="590" width="200" height="30" as="geometry" />
        </mxCell>
        <mxCell id="sfOpB3X1GmYssThPa7Gk-28" value="&lt;p style=&quot;line-height: 1.9&quot;&gt;visit(TerrestrialAnimals animals)&lt;br&gt;visit(MarineAnimal animals)&lt;br&gt;visit(FlyingAnimal animals)&lt;/p&gt;" style="rounded=0;whiteSpace=wrap;html=1;fillColor=#ffe6cc;strokeColor=#d79b00;align=left;spacingLeft=10;" vertex="1" parent="1">
          <mxGeometry x="760" y="620" width="200" height="80" as="geometry" />
        </mxCell>
        <mxCell id="sfOpB3X1GmYssThPa7Gk-38" style="edgeStyle=none;rounded=0;orthogonalLoop=1;jettySize=auto;html=1;entryX=0;entryY=0.5;entryDx=0;entryDy=0;endArrow=open;endFill=0;strokeWidth=1;endSize=10;" edge="1" parent="1" target="sfOpB3X1GmYssThPa7Gk-1">
          <mxGeometry relative="1" as="geometry">
            <mxPoint x="270" y="55" as="sourcePoint" />
          </mxGeometry>
        </mxCell>
        <mxCell id="sfOpB3X1GmYssThPa7Gk-32" value="对象结构（Object Structure）" style="rounded=0;whiteSpace=wrap;html=1;fillColor=#dae8fc;strokeColor=#6c8ebf;align=left;spacingLeft=10;" vertex="1" parent="1">
          <mxGeometry x="40" y="40" width="200" height="30" as="geometry" />
        </mxCell>
        <mxCell id="sfOpB3X1GmYssThPa7Gk-33" value="&lt;span&gt;动物园（Zoo ）&lt;/span&gt;" style="rounded=0;whiteSpace=wrap;html=1;fillColor=#ffe6cc;strokeColor=#d79b00;align=left;spacingLeft=10;" vertex="1" parent="1">
          <mxGeometry x="40" y="70" width="200" height="30" as="geometry" />
        </mxCell>
        <mxCell id="sfOpB3X1GmYssThPa7Gk-35" value="receive(Visitor visitor)" style="rounded=0;whiteSpace=wrap;html=1;fillColor=#ffe6cc;strokeColor=#d79b00;align=left;spacingLeft=10;" vertex="1" parent="1">
          <mxGeometry x="40" y="140" width="200" height="40" as="geometry" />
        </mxCell>
        <mxCell id="sfOpB3X1GmYssThPa7Gk-37" value="list:List&amp;lt;Animal&amp;gt;" style="rounded=0;whiteSpace=wrap;html=1;fillColor=#ffe6cc;strokeColor=#d79b00;align=left;spacingLeft=10;" vertex="1" parent="1">
          <mxGeometry x="40" y="100" width="200" height="40" as="geometry" />
        </mxCell>
        <mxCell id="sfOpB3X1GmYssThPa7Gk-44" style="edgeStyle=none;rounded=0;orthogonalLoop=1;jettySize=auto;html=1;dashed=1;endArrow=open;endFill=0;endSize=10;strokeWidth=1;" edge="1" parent="1" source="sfOpB3X1GmYssThPa7Gk-40" target="sfOpB3X1GmYssThPa7Gk-17">
          <mxGeometry relative="1" as="geometry" />
        </mxCell>
        <mxCell id="sfOpB3X1GmYssThPa7Gk-45" style="edgeStyle=none;rounded=0;orthogonalLoop=1;jettySize=auto;html=1;entryX=0.5;entryY=1;entryDx=0;entryDy=0;dashed=1;endArrow=open;endFill=0;endSize=10;strokeWidth=1;" edge="1" parent="1" source="sfOpB3X1GmYssThPa7Gk-40" target="sfOpB3X1GmYssThPa7Gk-35">
          <mxGeometry relative="1" as="geometry" />
        </mxCell>
        <mxCell id="sfOpB3X1GmYssThPa7Gk-40" value="客户端（Client）" style="rounded=0;whiteSpace=wrap;html=1;fillColor=#dae8fc;strokeColor=#6c8ebf;align=left;spacingLeft=10;" vertex="1" parent="1">
          <mxGeometry x="40" y="360" width="200" height="30" as="geometry" />
        </mxCell>
        <mxCell id="sfOpB3X1GmYssThPa7Gk-41" value="&lt;span&gt;测试Demo（TestDemo）&lt;/span&gt;" style="rounded=0;whiteSpace=wrap;html=1;fillColor=#ffe6cc;strokeColor=#d79b00;align=left;spacingLeft=10;" vertex="1" parent="1">
          <mxGeometry x="40" y="390" width="200" height="30" as="geometry" />
        </mxCell>
        <mxCell id="sfOpB3X1GmYssThPa7Gk-42" value="main(String[] args)" style="rounded=0;whiteSpace=wrap;html=1;fillColor=#ffe6cc;strokeColor=#d79b00;align=left;spacingLeft=10;" vertex="1" parent="1">
          <mxGeometry x="40" y="420" width="200" height="40" as="geometry" />
        </mxCell>
      </root>
    </mxGraphModel>
  </diagram>
</mxfile>
